<svg xmlns="http://www.w3.org/2000/svg" width="512" height="512" viewBox="0 0 512 512">
  <rect width="512" height="512" rx="96" fill="#F8FAFC"/>
  <path fill="#863BFF" d="M280 466c-12 15-36 7-36-13V332c0-18-14-32-32-32H128c-11 0-18-13-11-22l96-134c10-14 0-32-16-32H64c-11 0-18-13-11-22L156 24c4-5 9-8 16-8h256c11 0 18 13 11 22l-96 134c-10 14 0 32 16 32h144c12 0 18 14 10 24L280 466z"/>
  <circle cx="320" cy="160" r="180" fill="rgba(134,59,255,0.06)"/>
  <circle cx="340" cy="400" r="140" fill="rgba(134,59,255,0.08)"/>
</svg>
