<svg xmlns="http://www.w3.org/2000/svg" width="512" height="512" viewBox="0 0 512 512">
  <rect width="512" height="512" rx="96" fill="#F8FAFC"/>
  <circle cx="256" cy="256" r="220" fill="rgba(134,59,255,0.06)"/>
  <path fill="#863BFF" d="M256 420c-100-80-160-140-160-200 0-40 30-80 70-80 30 0 60 20 90 60 30-40 60-60 90-60 40 0 70 40 70 80 0 60-60 120-160 200z"/>
  <circle cx="256" cy="280" r="20" fill="#F8FAFC"/>
  <circle cx="220" cy="250" r="8" fill="#F8FAFC"/>
  <circle cx="292" cy="250" r="8" fill="#F8FAFC"/>
  <path fill="none" stroke="#F8FAFC" stroke-width="5" stroke-linecap="round" d="M236 300c0 0 12 16 20 16s20-16 20-16"/>
</svg>
